<svg enable-background="new 0 0 841.9 595.3" height="102" viewBox="182.2 58.9 182 105.979" width="182" xmlns="http://www.w3.org/2000/svg"><g transform="matrix(.215372 0 0 .215372 182.528381 47.784016)"><path clip-rule="evenodd" d="m223.8 531.1h394.3c20.5 0 37.1-16.6 37.1-37.1v-280.1h-468.5v280.2c0 20.4 16.6 37 37.1 37z" fill="#fff" fill-rule="evenodd"/><path d="m618.1 534.4h-394.3c-21.9 0-39.6-17.8-39.6-39.7v-394.2c0-21.9 17.8-39.6 39.6-39.6h394.3c21.9 0 39.7 17.8 39.7 39.6v394.3c-.1 21.9-17.8 39.6-39.7 39.6zm-394.3-468.4c-19 0-34.5 15.5-34.5 34.5v394.3c0 19 15.5 34.5 34.5 34.5h394.3c19 0 34.5-15.5 34.5-34.5v-394.3c0-19-15.5-34.5-34.5-34.5z" fill="#5ab650"/><path clip-rule="evenodd" d="m523.5 473.2c.1.9.3 1.6.7 2.2s.9 1 1.5 1.4c.6.3 1.3.5 2 .7.7.1 1.5.2 2.3.2 2 0 3.5-.4 4.7-1.1 1.1-.7 1.7-1.8 1.7-3.2 0-.9-.3-1.7-1-2.2s-1.8-.9-3.4-1.1l-3.4-.5c-.8-.1-1.4-.3-1.7-.5s-.4-.6-.4-1 .1-.7.3-.9c.2-.3.4-.5.8-.6.3-.1.7-.2 1.1-.3s.8-.1 1.2-.1c1.2 0 2.1.2 2.8.7.7.4 1 1 1 1.7h2.4c-.1-1.3-.7-2.3-1.7-3.1s-2.5-1.1-4.5-1.1c-1.8 0-3.2.4-4.2 1.1s-1.5 1.7-1.5 3c0 .9.3 1.7 1 2.3s1.5.9 2.4 1.1l4 .5c.9.1 1.6.3 1.9.6s.5.6.5 1.1c0 .2-.1.5-.2.7s-.3.4-.6.6-.7.3-1.2.5c-.5.1-1.1.2-1.9.2-.7 0-1.3-.1-1.9-.2-.5-.2-.9-.4-1.2-.6s-.5-.5-.7-.8c-.1-.3-.2-.6-.2-.9h-2.6zm-14.3 0c.1.9.3 1.6.7 2.2s.9 1 1.5 1.4c.6.3 1.3.5 2 .7.7.1 1.5.2 2.3.2 2 0 3.5-.4 4.7-1.1 1.1-.7 1.7-1.8 1.7-3.2 0-.9-.3-1.7-1-2.2s-1.8-.9-3.4-1.1l-3.4-.5c-.8-.1-1.4-.3-1.7-.5s-.4-.6-.4-1 .1-.7.3-.9c.2-.3.4-.5.8-.6.3-.1.7-.2 1.1-.3s.8-.1 1.2-.1c1.2 0 2.1.2 2.8.7.6.4 1 1 1 1.7h2.4c-.1-1.3-.7-2.3-1.7-3.1s-2.5-1.1-4.5-1.1c-1.8 0-3.2.4-4.2 1.1s-1.5 1.7-1.5 3c0 .9.3 1.7 1 2.3s1.5.9 2.4 1.1l4 .5c.9.1 1.5.3 1.9.6.3.3.5.6.5 1.1 0 .2-.1.5-.2.7s-.3.4-.6.6-.7.3-1.2.5c-.5.1-1.1.2-1.9.2-.7 0-1.3-.1-1.9-.2-.5-.2-.9-.4-1.3-.6-.3-.2-.5-.5-.7-.8-.1-.3-.2-.6-.2-.9h-2.5zm-13.3-3.5c.2-1.1.7-2 1.6-2.6s1.9-1 3-1c1.2 0 2.1.3 2.9.9s1.3 1.5 1.5 2.6h-9zm11.5 1.9v-.3c0-1.3-.2-2.3-.6-3.3-.4-.9-.9-1.7-1.6-2.2-.6-.6-1.4-1-2.2-1.3s-1.7-.4-2.5-.4c-1.2 0-2.2.2-3.2.5-.9.3-1.7.8-2.3 1.5-.6.6-1.1 1.3-1.4 2.1s-.5 1.7-.5 2.6.2 1.8.5 2.6.8 1.5 1.4 2.1 1.4 1.1 2.3 1.5 2 .5 3.2.5c.6 0 1.3-.1 1.9-.2.6-.2 1.3-.4 1.8-.8.6-.3 1.1-.8 1.6-1.3.5-.6.8-1.2 1.1-1.9h-2.6c-.2.4-.4.8-.8 1.1-.3.3-.7.5-1.1.7-.7.3-1.4.5-2.2.5-.5 0-1.1-.1-1.6-.3s-1-.4-1.5-.8c-.4-.3-.8-.8-1.1-1.3s-.4-1.1-.5-1.7h11.9zm-18.4.9c-.3 1-.7 1.8-1.3 2.3s-1.5.7-2.6.7c-1.5 0-2.6-.4-3.3-1.3s-1.1-2-1.1-3.4.4-2.6 1.1-3.4c.7-.9 1.9-1.3 3.3-1.3 1.1 0 2 .2 2.6.7.7.5 1.1 1.1 1.2 1.9h2.5c-.2-1.5-1-2.7-2.1-3.5-1.2-.8-2.7-1.2-4.4-1.2-1.1 0-2.1.2-3 .5s-1.6.8-2.2 1.5c-1.1 1.2-1.7 2.9-1.7 4.8 0 .8.1 1.7.4 2.5s.7 1.5 1.2 2.1 1.3 1.1 2.1 1.5c.9.4 1.9.6 3.1.6 1.7 0 3.1-.4 4.2-1.2s1.9-2.1 2.4-3.9h-2.4zm-15.2 0c-.3 1-.7 1.8-1.3 2.3s-1.5.7-2.6.7c-1.5 0-2.6-.4-3.3-1.3-.8-.9-1.1-2-1.1-3.4s.4-2.6 1.1-3.4c.7-.9 1.9-1.3 3.3-1.3 1.1 0 2 .2 2.6.7.7.5 1.1 1.1 1.2 1.9h2.6c-.2-1.5-1-2.7-2.1-3.5-1.2-.8-2.7-1.2-4.4-1.2-1.1 0-2.1.2-2.9.5-.9.3-1.6.8-2.2 1.5-1.1 1.2-1.7 2.9-1.7 4.8 0 .8.1 1.7.4 2.5s.7 1.5 1.2 2.1 1.3 1.1 2.1 1.5c.9.4 1.9.6 3.1.6 1.7 0 3.1-.4 4.2-1.2s1.9-2.1 2.4-3.9h-2.6zm-13.3-8h-2.4v7.3c0 1.2-.4 2.1-1.2 2.8s-1.8 1-2.9 1c-1.3 0-2.2-.2-2.8-.7s-.9-1.2-.9-2.2v-8.1h-2.4v8.6c0 1.5.5 2.6 1.4 3.4 1 .7 2.2 1.1 3.9 1.1 1 0 2-.2 2.8-.6.9-.4 1.6-1 2.1-1.8v1.9h2.4zm-27.8 8.7c.1.9.3 1.6.7 2.2s.9 1 1.5 1.4c.6.3 1.3.5 2 .7.7.1 1.5.2 2.3.2 2 0 3.5-.4 4.7-1.1 1.1-.7 1.7-1.8 1.7-3.2 0-.9-.3-1.7-1-2.2s-1.8-.9-3.4-1.1l-3.4-.5c-.8-.1-1.4-.3-1.7-.5s-.4-.6-.4-1 .1-.7.3-.9c.2-.3.5-.5.8-.6s.7-.2 1.1-.3.8-.1 1.2-.1c1.2 0 2.1.2 2.8.7.7.4 1 1 1 1.7h2.4c-.1-1.3-.7-2.3-1.7-3.1s-2.5-1.1-4.5-1.1c-1.8 0-3.2.4-4.2 1.1s-1.5 1.7-1.5 3c0 .9.3 1.7 1 2.3s1.5.9 2.4 1.1l4 .5c.9.1 1.5.3 1.9.6.3.3.5.6.5 1.1 0 .2-.1.5-.2.7s-.3.4-.6.6-.7.3-1.2.5c-.5.1-1.1.2-1.9.2-.7 0-1.3-.1-1.9-.2-.5-.2-.9-.4-1.2-.6s-.5-.5-.7-.8c-.1-.3-.2-.6-.2-.9h-2.6zm-12.5-2.4c0 1.3-.4 2.4-1.3 3.2-.8.8-2 1.2-3.4 1.2-1.5 0-2.6-.4-3.4-1.2s-1.2-1.9-1.2-3.2.4-2.4 1.3-3.3c.8-.8 2-1.3 3.4-1.3s2.6.4 3.4 1.3 1.2 2 1.2 3.3m0-4.4c-.5-.7-1.2-1.2-2-1.6-.9-.4-1.9-.5-2.9-.5-.9 0-1.7.1-2.5.4-.8.2-1.5.6-2.2 1.2-.7.5-1.2 1.2-1.6 2s-.6 1.8-.6 2.9.2 2.1.6 2.9.9 1.5 1.6 2 1.4.9 2.2 1.2c.8.2 1.7.4 2.6.4 1 0 1.9-.2 2.7-.5s1.6-.9 2.2-1.8v1.8c0 1.1-.4 2-1.1 2.8-.8.7-2 1.1-3.6 1.1-1.2 0-2.2-.2-2.9-.4-.7-.3-1.1-.8-1.3-1.6h-2.4c.1.8.4 1.5.8 2s.9.9 1.5 1.2 1.2.4 1.9.5 1.4.1 2.2.1c2.6 0 4.5-.5 5.6-1.5s1.7-2.6 1.7-4.9v-11.6h-2.4v1.9zm-27 10.8h2.4v-7.3c0-1.2.4-2.1 1.2-2.8s1.8-1 2.9-1c1.3 0 2.2.3 2.8.8s.9 1.2.9 2.2v8.1h2.4v-8.6c0-1.5-.5-2.6-1.5-3.4-1-.7-2.2-1.1-3.9-1.1-1 0-2 .2-2.8.6-.9.4-1.6 1-2.1 1.8v-1.9h-2.4v12.6zm-5.3-14.8h2.4v-2.7h-2.4zm0 14.8h2.4v-12.6h-2.4zm-7.9-12.7h-2.6v1.9h2.6v8.2c0 .9.3 1.7.8 2.2s1.4.8 2.5.8c1.2 0 2.1-.1 2.7-.2v-2c-.7.1-1.2.2-1.7.2-.6 0-1.1-.1-1.5-.3-.3-.2-.5-.6-.5-1.1v-7.8h3.6v-1.9h-3.6v-3.9h-2.3zm-15 5.2c.2-1.1.7-2 1.6-2.6s1.9-1 3-1 2.1.3 2.9.9 1.3 1.5 1.5 2.6h-9zm11.5 1.9v-.3c0-1.3-.2-2.3-.6-3.3-.4-.9-.9-1.7-1.5-2.2-.7-.6-1.4-1-2.2-1.3s-1.6-.4-2.5-.4c-1.2 0-2.2.2-3.2.5-.9.3-1.7.8-2.3 1.5-.6.6-1.1 1.3-1.4 2.1s-.5 1.7-.5 2.6.2 1.8.5 2.6.8 1.5 1.4 2.1 1.4 1.1 2.3 1.5 2 .5 3.2.5c.6 0 1.3-.1 1.9-.2.7-.2 1.3-.4 1.9-.8.6-.3 1.1-.8 1.6-1.3.5-.6.9-1.2 1.2-1.9h-2.6c-.2.4-.4.8-.8 1.1-.3.3-.7.5-1.1.7-.6.3-1.4.5-2.2.5-.6 0-1.1-.1-1.6-.3s-1-.4-1.5-.8c-.4-.3-.8-.8-1.1-1.3s-.4-1.1-.5-1.7h11.6zm-18.8-.8c0 1.3-.4 2.4-1.3 3.2-.8.8-2 1.2-3.4 1.2-1.5 0-2.6-.4-3.4-1.2s-1.2-1.9-1.2-3.2.4-2.4 1.3-3.3c.8-.8 2-1.3 3.4-1.3s2.6.4 3.4 1.3 1.2 2 1.2 3.3m0-4.4c-.5-.7-1.2-1.2-2-1.6-.9-.4-1.9-.5-2.9-.5-.9 0-1.7.1-2.5.4-.8.2-1.5.6-2.2 1.2-.7.5-1.2 1.2-1.6 2s-.6 1.8-.6 2.9.2 2.1.6 2.9.9 1.5 1.6 2 1.4.9 2.2 1.2c.8.2 1.7.4 2.5.4 1 0 1.9-.2 2.7-.5s1.6-.9 2.2-1.8v1.8c0 1.1-.4 2-1.1 2.8-.8.7-2 1.1-3.6 1.1-1.2 0-2.2-.2-2.9-.4-.7-.3-1.1-.8-1.3-1.6h-2.4c.1.8.4 1.5.8 2s.9.9 1.5 1.2 1.2.4 1.9.5 1.4.1 2.2.1c2.6 0 4.5-.5 5.6-1.5s1.7-2.6 1.7-4.9v-11.6h-2.4zm-21.1 10.8h2.4v-6.4c0-1.3.4-2.4 1.1-3.1s1.7-1.1 2.9-1.1c.3 0 .6 0 .8.1.3 0 .5.1.9.2v-2.6c-.2-.1-.4-.1-.6-.1s-.4 0-.8 0c-.9 0-1.6.2-2.4.7-.7.4-1.4 1.1-1.9 2.1v-2.3h-2.4zm-5.9-5c0 .5-.1 1-.4 1.4s-.6.8-1.1 1.1-1 .6-1.6.7c-.6.2-1.3.3-1.9.3-.9 0-1.6-.2-2.1-.6s-.8-.9-.8-1.4c0-.6.2-1.1.7-1.4s1.2-.5 2.2-.6l2.7-.3c.7-.1 1.2-.2 1.6-.3.3-.1.6-.3.8-.5v1.6zm-7.5-3.7c0-.9.4-1.6 1.1-1.9.7-.4 1.6-.6 2.8-.6.5 0 1 0 1.4.1s.8.2 1.1.3c.3.2.6.4.8.6.2.3.3.6.3 1 0 .5-.2.9-.5 1.1s-.9.3-1.7.4l-2.7.3c-2 .2-3.4.6-4.2 1.2s-1.2 1.5-1.2 2.7c0 .5.1.9.2 1.4.2.4.4.8.8 1.2s.9.7 1.6.9 1.5.4 2.5.4c1.1 0 2.1-.2 3.1-.6s1.8-.9 2.2-1.5c.1.7.3 1.1.7 1.4s.9.4 1.5.4c.7 0 1.3 0 1.9-.1v-1.7c-.3.1-.6.1-.9.1-.7 0-1.1-.4-1.1-1.1v-6.8c0-.7-.2-1.3-.5-1.8s-.8-.9-1.4-1.1c-.6-.3-1.2-.4-1.9-.5s-1.4-.2-2.1-.2c-1.9 0-3.4.3-4.5 1-1 .7-1.6 1.8-1.8 3.4zm-11 8.7v-15h-6.5v-2.2h15.6v2.2h-6.5v15z" fill="#0d74b8" fill-rule="evenodd"/><path clip-rule="evenodd" d="m236 428c0 2.1.3 3.9.9 5.5s1.5 3 2.6 4.2 2.5 2.2 4 2.9c1.5.8 3.1 1.3 4.9 1.7s3.6.6 5.4.6c2.9 0 5.4-.4 7.5-1 2.2-.7 4-1.6 5.5-2.8s2.6-2.6 3.3-4.3c.8-1.6 1.1-3.4 1.1-5.3 0-1.6-.2-3-.7-4.2s-1.1-2.2-1.8-3.1c-.8-.9-1.6-1.6-2.5-2.2s-1.8-1.1-2.8-1.4c-.9-.4-1.8-.7-2.6-.9s-1.5-.4-2-.5c-2.1-.5-3.9-1-5.3-1.4-1.5-.4-2.7-.8-3.6-1.1s-1.7-.7-2.2-1-.9-.8-1.1-1.2c-.2-.5-.3-1-.3-1.6 0-.9.2-1.6.6-2.2s.9-1.1 1.5-1.5 1.3-.6 2-.8 1.5-.2 2.2-.2c1.5 0 2.8.2 4 .5 1.2.4 2.2 1 2.9 1.9.8.9 1.2 2.2 1.3 3.9h8.9c0-1.9-.3-3.6-.9-5.1s-1.4-2.7-2.5-3.8-2.3-1.9-3.7-2.6-2.9-1.2-4.6-1.5c-1.6-.3-3.3-.5-5.1-.5-1.5 0-3 .2-4.5.5s-2.9.8-4.3 1.5c-1.3.7-2.5 1.5-3.5 2.5s-1.8 2.2-2.4 3.6-.9 2.9-.9 4.6c0 1.6.2 2.9.7 4.1s1.1 2.2 1.9 3 1.7 1.6 2.8 2.2 2.2 1.1 3.4 1.5 2.4.8 3.7 1.1c1.2.3 2.5.6 3.7.9s2.3.6 3.4.9 2 .7 2.8 1.2c.8.4 1.4 1 1.9 1.6s.7 1.4.7 2.3-.2 1.6-.5 2.2c-.4.6-.8 1.1-1.4 1.5s-1.2.7-2 .9c-.7.2-1.4.4-2.2.5-.7.1-1.4.1-2.1.1-1.2 0-2.4-.1-3.5-.4s-2.1-.7-3-1.4c-.9-.6-1.5-1.4-2-2.4s-.7-2.2-.8-3.6h-8.8zm77.7-13.9c-.3-2.4-1-4.6-2-6.5s-2.4-3.4-4-4.7-3.5-2.3-5.5-2.9c-2.1-.7-4.2-1-6.6-1-2.6 0-5 .4-7.1 1.1-2.2.7-4.1 1.8-5.7 3.1-1.7 1.3-3.1 2.9-4.2 4.8-1.1 1.8-2 3.9-2.6 6.1s-.9 4.6-.9 7.1c0 2.4.3 4.7.9 6.9s1.5 4.2 2.6 6c1.2 1.8 2.6 3.4 4.2 4.7 1.7 1.3 3.6 2.4 5.7 3.1 2.2.7 4.5 1.1 7.1 1.1s4.9-.4 7.1-1.2c2.1-.8 4-1.9 5.6-3.4s2.9-3.3 3.9-5.4 1.6-4.5 1.8-7.1h-8.9c-.2 1.8-.7 3.5-1.5 4.9s-1.8 2.5-3.2 3.3c-1.3.8-2.9 1.2-4.8 1.2-1.7 0-3.1-.3-4.4-.8s-2.3-1.2-3.2-2.1-1.6-2-2.2-3.2-1-2.5-1.2-3.8c-.3-1.4-.4-2.7-.4-4.1 0-1.5.1-2.9.4-4.3s.7-2.7 1.2-3.9c.6-1.2 1.3-2.3 2.2-3.2s2-1.6 3.2-2.2c1.3-.5 2.7-.8 4.4-.8 1.1 0 2.2.2 3.3.6 1 .4 2 .9 2.8 1.6s1.5 1.4 2 2.3.9 1.9 1 2.9h9zm6.6 27.8h9.2v-16.4h9.2c1.5 0 2.8.2 3.7.7 1 .4 1.7 1.1 2.2 2.1.5.9.9 2.1 1.1 3.6.2 1.1.3 2.3.3 3.5.1 1.2.2 2.4.3 3.5.2 1.1.4 2.1.8 3h9.2c-.4-.6-.7-1.3-.9-2.2-.2-.8-.4-1.7-.5-2.7-.1-.9-.2-1.8-.2-2.7s-.1-1.7-.1-2.3c-.1-1.1-.2-2.1-.4-3.1s-.6-2-1-2.9c-.5-.9-1.1-1.7-1.8-2.3-.8-.7-1.7-1.1-2.8-1.4v-.1c2.3-1 4-2.3 5.1-4.1s1.6-3.9 1.6-6.4c0-1.6-.3-3.1-.9-4.5s-1.4-2.6-2.5-3.7-2.4-1.9-3.9-2.5-3.2-.9-5.1-.9h-22.6zm9.3-34.7h10.1c2.1 0 3.6.5 4.7 1.4s1.6 2.4 1.6 4.4c0 2.1-.5 3.6-1.6 4.6-1.1.9-2.6 1.4-4.7 1.4h-10.1zm68.8-7.2h-9.2v26.1c0 2.1-.2 3.8-.8 5.1-.5 1.3-1.4 2.3-2.7 3-1.3.6-3 1-5.2 1-1.8 0-3.4-.3-4.5-.8-1.2-.5-2-1.2-2.6-2.1s-1-1.8-1.2-2.9-.3-2.2-.3-3.4v-26h-9.2v26.1c0 3.8.7 6.9 2.1 9.4s3.4 4.4 6.1 5.6 5.9 1.8 9.7 1.8 7-.6 9.6-1.8c2.7-1.2 4.7-3.1 6.1-5.6s2.1-5.6 2.2-9.4v-26.1zm7.9 41.9h8.6v-29.4h.1l10.3 29.4h7.1l10.3-29.7h.1v29.7h8.6v-41.9h-13l-9.3 28.8h-.1l-9.8-28.8h-13v41.9z" fill="#0d74b8" fill-rule="evenodd"/><path clip-rule="evenodd" d="m605.9 411.5h-8.6l-6.6 20.6h-.1l-6.8-20.6h-8.8l10.6 28.2c.2.6.3 1.2.3 1.9 0 1-.3 1.8-.8 2.5-.6.7-1.4 1.1-2.4 1.2-1 0-2.3-.1-3.8-.2-.3 0-.7-.1-1-.1v6.8c1.9.2 3.5.3 5.1.3 2.8 0 5-.5 6.6-1.6s2.8-2.8 3.7-5.2zm-41.6 14.9c0 1.3-.1 2.6-.3 3.7s-.6 2.2-1.2 3.1-1.3 1.6-2.2 2.2c-.9.5-2 .8-3.3.8-1.2 0-2.3-.3-3.2-.8s-1.7-1.3-2.3-2.2-1-2-1.3-3.1-.4-2.3-.4-3.5c0-1.3.1-2.5.4-3.6s.7-2.2 1.3-3.1 1.3-1.6 2.3-2.1c.9-.5 2.1-.8 3.4-.8s2.4.3 3.3.8 1.7 1.2 2.2 2.1.9 1.9 1.2 3c0 1 .1 2.2.1 3.5m.1 15.2h7.8v-41.6h-8.2v15.1h-.1c-.9-1.4-2.1-2.5-3.8-3.3-1.6-.8-3.3-1.2-5.1-1.2-2.1 0-4 .4-5.7 1.3-1.7.8-3.1 2-4.2 3.5s-2 3.1-2.5 5c-.6 1.9-.8 3.8-.8 5.9s.3 4.2.8 6.1c.6 1.9 1.4 3.6 2.6 5.1 1.1 1.5 2.6 2.7 4.3 3.6s3.6 1.3 5.8 1.3c2 0 3.8-.4 5.4-1.1 1.6-.8 2.8-1.9 3.7-3.5h.1v3.8zm-27.7-30.1h-8.3v15.8c0 3.1-.5 5.3-1.5 6.6s-2.6 2-4.9 2c-1.9 0-3.2-.6-4-1.8s-1.3-3.1-1.3-5.6v-17h-8.3v18.5c0 2 .2 3.7.5 5.2s.9 2.8 1.7 3.8c.8 1.1 2 1.9 3.4 2.5s3.2.9 5.4.9c1.8 0 3.6-.4 5.2-1.3s3-2.1 4-3.7h.2v4.2h7.9zm-51.5 0v5.5h5v17.7c0 1.4.2 2.6.7 3.6.5.9 1.2 1.7 2 2.2.9.5 1.9.9 3 1.1s2.4.3 3.8.3c2.1 0 3.7-.1 4.8-.3v-6.5c-.8.1-1.6.2-2.6.2-1.4 0-2.3-.2-2.8-.7s-.7-1.4-.7-2.8v-14.8h6.1v-5.5zm-29.9 20.3c.1 1.9.5 3.5 1.3 4.9s1.9 2.5 3.2 3.3 2.8 1.4 4.4 1.8 3.4.6 5.2.6 3.5-.2 5.1-.6 3.1-1 4.4-1.8 2.3-1.9 3.1-3.3 1.1-3 1.1-4.9c0-1.3-.3-2.5-.7-3.4-.5-1-1.2-1.8-2.1-2.4s-1.9-1.1-3-1.5-2.3-.8-3.7-1.1c-.4-.1-1.2-.3-2.3-.5-2.4-.5-4.2-1-5.4-1.5s-1.7-1.3-1.7-2.4.4-1.8 1.3-2.2 2-.6 3.3-.6c1.7 0 3 .3 4 .9s1.5 1.7 1.7 3.2h7.9c-.2-1.8-.6-3.3-1.4-4.5s-1.8-2.2-3-3c-1.2-.7-2.6-1.3-4.1-1.6s-3.1-.5-4.9-.5c-1.7 0-3.4.2-4.9.5s-2.9.8-4.2 1.5c-1.2.7-2.2 1.7-2.9 3s-1.1 2.8-1.1 4.7c0 1.3.3 2.4.8 3.3s1.2 1.7 2.1 2.3 1.9 1.1 2.9 1.5c1.1.4 2.3.7 3.7 1 3.5.7 5.9 1.4 7.3 2s2.1 1.5 2.1 2.6c0 1.3-.5 2.3-1.6 2.9s-2.4.9-3.8.9c-1.8 0-3.3-.4-4.5-1.3-1.2-.8-1.8-2.1-1.9-3.8z" fill="#5ab650" fill-rule="evenodd"/><path clip-rule="evenodd" d="m490.4 400.4h8v8h-8z" fill="#5ab650" fill-rule="evenodd"/><path clip-rule="evenodd" d="m421.4 267.5c11.5.1 20.9 3.8 28.9 10.8-1.7.9-3.1 1.9-4.7 2.9-6.9-5.5-14.8-8.3-24.3-8.4-11.2-.1-21.5 4.3-28.9 11.6-7.5 7.3-12.1 17.4-12.2 28.7-.1 11.2 4.3 21.5 11.6 28.9 7.3 7.5 17.4 12.1 28.7 12.2 11.2.1 21.5-4.4 28.9-11.6 7.5-7.3 12.1-17.5 12.2-28.7 0-4.7-.5-8.7-1.7-12.6 1.4-1.4 2.9-2.6 4.3-3.8 1.9 5.1 2.7 10.4 2.7 16.5-.1 12.7-5.4 24.2-13.8 32.4s-20 13.3-32.7 13.1c-12.7-.1-24.2-5.4-32.4-13.8s-13.3-20-13.2-32.7c.1-12.7 5.4-24.2 13.8-32.4 8.5-8.2 20.1-13.2 32.8-13.1zm-.1 9.8c-10-.1-19.1 3.9-25.7 10.4s-10.8 15.5-10.9 25.5c-.1 10 3.9 19.1 10.3 25.7 6.5 6.6 15.5 10.8 25.5 10.9 10 .1 19.1-3.9 25.7-10.3 6.6-6.5 10.8-15.5 10.9-25.5 0-3.4-.2-6.2-.8-8.9-1.7 1.8-3.2 3.8-4.5 5.8v3c-.1 8.5-3.6 16.2-9.3 21.8-5.7 5.5-13.4 8.9-22 8.8-8.5-.1-16.2-3.6-21.8-9.3-5.5-5.7-8.9-13.4-8.8-22 .1-8.5 3.6-16.2 9.3-21.8s13.4-8.9 22-8.9c6.1.1 11.9 1.9 16.7 5.1.9-1.1 2.6-2.7 4.1-3.7-5.9-4.3-12.8-6.5-20.7-6.6z" fill="#0d74b8" fill-rule="evenodd"/><path clip-rule="evenodd" d="m408.4 290.1c-6.6 3.6-11.5 10-13.1 17.6l11.9 27.9c4.2 2.6 9.2 4.1 14.5 3.9 2.1-.1 4.2-.4 6.2-.9z" fill="#5ab650" fill-rule="evenodd"/><path clip-rule="evenodd" d="m507.9 264.7c-.9 0-1.8.1-2.7.1-30.3 1.9-63.9 17.7-85.2 46.2 2.4 5.1 10.3 25 10.9 26.6 18.3-39.7 45.3-63.8 77-72.9" fill="#5ab650" fill-rule="evenodd"/><path clip-rule="evenodd" d="m618.1 63.4h-394.3c-20.5 0-37.1 16.6-37.1 37.1v112.5h468.4v-112.5c.1-20.5-16.5-37.1-37-37.1z" fill="#5ab650" fill-rule="evenodd"/><g fill="#fff"><path d="m369 139.8c-2.6 0-5.2-.3-7.6-1-2.5-.7-4.6-1.7-6.4-3.1s-3.2-3.3-4.2-5.6c-.9-2.2-1.2-4.9-.8-7.9l.1-1h12.1l-.1 1.3c-.1 1.3 0 2.5.3 3.4.4.9.9 1.6 1.6 2.1.7.6 1.6 1 2.7 1.3s2.3.4 3.5.4c.8 0 1.8-.1 2.8-.2.9-.1 1.8-.4 2.7-.8.8-.4 1.5-.9 2.1-1.5.5-.6.8-1.3.9-2.2s-.1-1.6-.6-2.1c-.6-.6-1.4-1.2-2.5-1.6-1.2-.5-2.5-.9-4.1-1.3s-3.2-.8-4.9-1.3c-1.7-.4-3.4-1-5-1.6-1.7-.7-3.2-1.5-4.4-2.6-1.3-1.1-2.3-2.5-3-4.1-.7-1.7-.9-3.7-.7-6 .3-2.5 1.1-4.8 2.4-6.7s2.9-3.4 4.7-4.7c1.9-1.2 3.9-2.1 6.2-2.7 4.8-1.3 9.5-1.1 13.7 0 2.3.6 4.3 1.5 6 2.8s3.1 3 4 5.1c.9 2 1.2 4.5.9 7.4l-.1 1h-12l.1-1.2c.1-1.2-.1-2.2-.4-2.9s-.7-1.2-1.3-1.6-1.4-.7-2.3-.9-2-.3-3.2-.3c-.7 0-1.5.1-2.2.2s-1.4.4-1.9.8c-.6.4-1.1.8-1.5 1.3s-.6 1.1-.7 1.9c-.1.7 0 1.2.2 1.5.1.2.4.6 1.3 1s2.2.9 3.8 1.3c1.7.5 4 1.1 6.7 1.8.9.2 2.1.5 3.5 1 1.6.5 3.1 1.3 4.6 2.3 1.5 1.1 2.8 2.5 3.8 4.3 1 1.9 1.4 4.2 1.1 7-.2 2.2-.9 4.4-2 6.3s-2.6 3.6-4.5 5-4.1 2.5-6.7 3.2c-2.5.8-5.5 1.2-8.7 1.2z"/><path d="m444.1 138.8h-11.8l2.9-27-12.2 27h-9.5l-6.5-27-2.9 27h-11.8l5.2-48.3h16.2l6.8 29.2 12.5-29.2h16.3z"/><path d="m471.8 139.8c-3.7 0-7-.7-9.8-1.9-2.8-1.3-5.2-3.1-7-5.4s-3.1-5-3.9-8c-.7-3-.9-6.3-.6-9.8.4-3.5 1.3-6.9 2.7-9.9s3.2-5.7 5.5-8 5-4.1 8-5.4c3.1-1.3 6.5-2 10.1-2 2.6 0 5.1.4 7.4 1.2s4.4 1.9 6.1 3.4c1.8 1.5 3.2 3.4 4.2 5.6s1.5 4.7 1.5 7.6v1.2h-12.1v-1.1c0-1-.3-1.9-.7-2.7s-1-1.6-1.7-2.2-1.6-1.1-2.5-1.5c-1-.4-2-.5-3.1-.5-2.1 0-3.9.4-5.4 1.2s-2.8 1.9-3.9 3.2c-1.1 1.4-1.9 3-2.5 4.7-.6 1.8-1 3.7-1.2 5.6-.2 1.8-.2 3.6.1 5.3.2 1.7.7 3.2 1.5 4.5.7 1.3 1.8 2.3 3.1 3.1s3 1.2 5.1 1.2c2.8 0 5-.8 6.7-2.5 1.8-1.7 3-4 3.7-6.9l.2-.9h12.1l-.3 1.4c-.6 3-1.6 5.7-3 8.1s-3.1 4.5-5.1 6.2-4.4 3-6.9 3.9c-2.6.9-5.4 1.3-8.3 1.3z"/><path d="m267.6 180.6c.3.5.6.9 1 1.2s.9.5 1.5.7c.6.1 1.2.2 1.8.2.4 0 .9 0 1.3-.1.5-.1.9-.2 1.3-.4s.8-.5 1-.8c.3-.3.4-.8.4-1.3 0-.6-.2-1-.5-1.4-.4-.4-.8-.7-1.4-.9s-1.3-.4-2-.6c-.8-.2-1.5-.4-2.3-.6s-1.6-.4-2.3-.7c-.8-.3-1.4-.7-2-1.1-.6-.5-1.1-1-1.4-1.7s-.5-1.5-.5-2.5c0-1.1.2-2 .7-2.8s1.1-1.5 1.8-2c.8-.5 1.6-.9 2.6-1.2.9-.3 1.9-.4 2.8-.4 1.1 0 2.2.1 3.2.4 1 .2 1.9.6 2.7 1.2s1.4 1.3 1.9 2.1c.5.9.7 1.9.7 3.1h-4.5c0-.6-.2-1.2-.4-1.6s-.5-.7-.9-1c-.4-.2-.8-.4-1.3-.5s-1-.1-1.6-.1c-.4 0-.8 0-1.1.1-.4.1-.7.2-1 .4s-.6.4-.8.7-.3.7-.3 1.1.1.8.2 1c.2.3.5.5.9.7.5.2 1.1.4 1.9.7.8.2 1.9.5 3.2.8.4.1.9.2 1.6.4s1.4.5 2.1 1 1.3 1.1 1.8 1.8c.5.8.8 1.7.8 2.9 0 1-.2 1.9-.6 2.7s-.9 1.5-1.7 2.2c-.7.6-1.7 1.1-2.8 1.4s-2.4.5-3.8.5c-1.2 0-2.3-.1-3.4-.4s-2.1-.7-2.9-1.4c-.8-.6-1.5-1.4-2-2.3s-.7-2.1-.7-3.4h4.5c.1.8.3 1.4.5 1.9z"/><path d="m289.9 173.2c-.7 0-1.2.2-1.7.5s-.8.7-1.1 1.2-.5 1-.6 1.6-.2 1.2-.2 1.7c0 .6.1 1.1.2 1.7s.3 1.1.6 1.6.6.8 1.1 1.1 1 .4 1.7.4c1 0 1.8-.3 2.3-.8.5-.6.9-1.3 1-2.3h4.1c-.3 2-1.1 3.6-2.4 4.7s-3 1.6-5 1.6c-1.1 0-2.2-.2-3.2-.6s-1.8-.9-2.4-1.6c-.7-.7-1.2-1.5-1.6-2.5s-.6-2-.6-3.2.2-2.3.5-3.3.9-1.9 1.5-2.6c.7-.7 1.5-1.3 2.5-1.7s2.1-.6 3.3-.6c.9 0 1.8.1 2.6.4.8.2 1.6.6 2.3 1.1s1.2 1.1 1.6 1.8.7 1.6.7 2.6h-4.1c-.3-1.9-1.3-2.8-3.1-2.8z"/><path d="m303.3 170.5v2.8h.1c.2-.5.5-.9.8-1.3s.7-.8 1.2-1c.4-.3.9-.5 1.4-.7s1-.2 1.5-.2c.3 0 .6 0 .9.1v3.9c-.2 0-.4-.1-.7-.1s-.5 0-.8 0c-.8 0-1.4.1-2 .4-.5.3-1 .6-1.3 1.1-.3.4-.6 1-.7 1.6s-.2 1.2-.2 1.9v6.9h-4.2v-15.3h4z"/><path d="m320.9 185.8v-2.1h-.1c-.5.9-1.2 1.5-2.1 1.9s-1.7.6-2.6.6c-1.1 0-2.1-.1-2.8-.4s-1.3-.7-1.7-1.3c-.4-.5-.7-1.2-.9-2s-.3-1.6-.3-2.6v-9.4h4.2v8.7c0 1.3.2 2.2.6 2.8s1.1.9 2.1.9c1.1 0 2-.3 2.5-1s.8-1.8.8-3.4v-8h4.2v15.3z"/><path d="m331.9 170.5v2.1h.1c.6-.8 1.2-1.4 2-1.8s1.7-.7 2.7-.7 1.9.2 2.7.6 1.4 1 1.8 2c.5-.7 1.1-1.3 1.9-1.8s1.7-.8 2.8-.8c.8 0 1.6.1 2.3.3s1.3.5 1.8.9.9 1 1.2 1.7.4 1.5.4 2.5v10.3h-4.2v-8.7c0-.5 0-1-.1-1.5 0-.5-.1-.8-.3-1.2-.2-.3-.4-.6-.8-.8-.3-.2-.8-.3-1.4-.3s-1.1.1-1.4.3c-.4.2-.7.5-.9.9s-.3.8-.4 1.2c-.1.5-.1.9-.1 1.4v8.5h-4.2v-8.6c0-.5 0-.9 0-1.3s-.1-.9-.3-1.2c-.1-.4-.4-.7-.7-.9s-.9-.3-1.5-.3c-.2 0-.5 0-.8.1s-.6.3-1 .5c-.3.2-.6.6-.8 1.1s-.3 1.1-.3 1.8v8.9h-4.4v-15.3h3.9z"/><path d="m369.4 164.6 5 14.6h.1l4.7-14.6h6.6v21.2h-4.4v-15h-.1l-5.2 15h-3.6l-5.2-14.9h-.1v14.9h-4.4v-21.2z"/><path d="m388.8 175.2c.1-1 .3-1.8.7-2.5s1-1.2 1.7-1.6 1.4-.7 2.3-.8c.8-.2 1.7-.3 2.5-.3s1.6.1 2.3.2c.8.1 1.5.3 2.2.6s1.2.8 1.6 1.3c.4.6.6 1.3.6 2.2v8c0 .7 0 1.4.1 2s.2 1.1.4 1.4h-4.2c-.1-.2-.1-.5-.2-.7s-.1-.5-.1-.8c-.7.7-1.5 1.2-2.4 1.5s-1.8.4-2.8.4c-.7 0-1.4-.1-2-.3s-1.2-.5-1.7-.8c-.5-.4-.8-.9-1.1-1.4-.3-.6-.4-1.3-.4-2 0-.9.2-1.6.5-2.2s.7-1 1.2-1.4c.5-.3 1-.6 1.7-.8.6-.2 1.3-.3 1.9-.4s1.3-.2 1.9-.2c.6-.1 1.2-.1 1.6-.3.5-.1.9-.3 1.1-.5.3-.2.4-.6.4-1 0-.5-.1-.8-.2-1.1s-.3-.5-.6-.6c-.2-.1-.5-.2-.9-.3-.3 0-.7-.1-1.1-.1-.8 0-1.5.2-2 .5-.5.4-.8 1-.8 1.8h-4.2zm9.8 3.1c-.2.2-.4.3-.7.4s-.6.2-.9.2c-.3.1-.6.1-1 .1-.3 0-.7.1-1 .1-.3.1-.6.1-.9.2s-.6.2-.8.4-.4.4-.5.6-.2.6-.2 1 .1.7.2.9.3.5.6.6c.2.1.5.3.8.3.3.1.6.1 1 .1.8 0 1.5-.1 1.9-.4.5-.3.8-.6 1-1s.4-.8.4-1.2.1-.7.1-.9z"/><path d="m409.3 182c.2.3.4.6.7.8s.6.4 1 .5.8.1 1.2.1c.3 0 .6 0 .9-.1s.6-.2.9-.3.5-.3.7-.6c.2-.2.3-.6.3-.9 0-.6-.4-1.1-1.3-1.4-.8-.3-2-.6-3.5-.9-.6-.1-1.2-.3-1.8-.5s-1.1-.4-1.6-.7-.8-.7-1.1-1.2-.4-1-.4-1.7c0-1 .2-1.8.6-2.4s.9-1.1 1.5-1.5 1.3-.6 2.1-.8c.8-.1 1.6-.2 2.4-.2s1.6.1 2.4.2c.8.2 1.5.4 2.1.8s1.1.9 1.5 1.5.6 1.4.7 2.4h-4c-.1-.8-.4-1.4-.9-1.6-.6-.3-1.2-.4-2-.4-.2 0-.5 0-.8 0s-.5.1-.8.2c-.2.1-.4.2-.6.4s-.2.4-.2.8.1.7.4.9.6.4 1.1.6c.4.1 1 .3 1.5.4.6.1 1.2.2 1.8.4.6.1 1.2.3 1.8.5s1.1.5 1.6.8.8.7 1.1 1.2.4 1.1.4 1.8c0 1-.2 1.9-.6 2.5-.4.7-.9 1.2-1.6 1.6s-1.4.7-2.2.9-1.7.3-2.6.3-1.8-.1-2.6-.3c-.9-.2-1.6-.5-2.3-.9s-1.2-1-1.6-1.6c-.4-.7-.7-1.5-.7-2.6h4c.2.3.3.7.5 1z"/><path d="m429.8 170.5v2.8h-3.1v7.6c0 .7.1 1.2.4 1.4.2.2.7.4 1.4.4h.7c.2 0 .4 0 .6-.1v3.3c-.4.1-.8.1-1.2.1s-.9 0-1.3 0c-.7 0-1.3 0-1.9-.1s-1.1-.3-1.5-.5c-.4-.3-.8-.6-1.1-1.1s-.4-1.1-.4-1.9v-9.1h-2.4v-2.8h2.6v-4.6h4.2v4.6z"/><path d="m436 182.1c.6.6 1.5.9 2.7.9.8 0 1.6-.2 2.2-.6s1-.9 1.1-1.4h3.7c-.6 1.8-1.5 3.2-2.7 3.9-1.2.8-2.7 1.2-4.5 1.2-1.2 0-2.3-.2-3.3-.6s-1.8-.9-2.5-1.6-1.2-1.6-1.6-2.6-.5-2.1-.5-3.3c0-1.1.2-2.2.6-3.2s.9-1.8 1.6-2.6 1.5-1.3 2.5-1.7 2-.6 3.2-.6c1.3 0 2.4.3 3.4.8s1.8 1.2 2.4 2 1.1 1.8 1.4 2.9.4 2.2.3 3.4h-11c.1 1.5.4 2.5 1 3.1zm4.8-8.1c-.5-.6-1.3-.8-2.3-.8-.7 0-1.2.1-1.7.3-.4.2-.8.5-1.1.8s-.5.7-.6 1.1-.2.7-.2 1h6.9c-.1-1-.5-1.8-1-2.4z"/><path d="m452.3 170.5v2.8h.1c.2-.5.5-.9.8-1.3s.7-.8 1.2-1c.4-.3.9-.5 1.4-.7s1-.2 1.5-.2c.3 0 .6 0 .9.1v3.9c-.2 0-.4-.1-.7-.1s-.5 0-.8 0c-.8 0-1.4.1-2 .4-.5.3-1 .6-1.3 1.1-.3.4-.6 1-.7 1.6s-.2 1.2-.2 1.9v6.9h-4.2v-15.3h4z"/><path d="m481.5 170.3c-.3-.4-.6-.8-1-1.2-.4-.3-.9-.6-1.4-.8s-1.1-.3-1.6-.3c-1 0-1.9.2-2.7.6-.7.4-1.3.9-1.8 1.6s-.8 1.5-1 2.3c-.2.9-.3 1.8-.3 2.7s.1 1.8.3 2.6.5 1.6 1 2.3 1 1.2 1.8 1.6c.7.4 1.6.6 2.7.6 1.4 0 2.5-.4 3.3-1.3s1.3-2 1.5-3.4h4.5c-.1 1.3-.4 2.5-.9 3.6s-1.1 2-2 2.7c-.8.8-1.8 1.3-2.8 1.7-1.1.4-2.3.6-3.6.6-1.6 0-3.1-.3-4.4-.8-1.3-.6-2.4-1.3-3.3-2.3s-1.6-2.2-2-3.5c-.5-1.3-.7-2.8-.7-4.3 0-1.6.2-3.1.7-4.4.5-1.4 1.2-2.5 2-3.5.9-1 2-1.8 3.3-2.4s2.8-.9 4.4-.9c1.2 0 2.3.2 3.3.5s2 .8 2.8 1.5c.8.6 1.5 1.4 2 2.4.5.9.9 2 1 3.3h-4.6c0-.6-.2-1.1-.5-1.5z"/><path d="m493.7 182.1c.6.6 1.5.9 2.7.9.8 0 1.6-.2 2.2-.6s1-.9 1.1-1.4h3.7c-.6 1.8-1.5 3.2-2.7 3.9-1.2.8-2.7 1.2-4.5 1.2-1.2 0-2.3-.2-3.3-.6s-1.8-.9-2.5-1.6-1.2-1.6-1.6-2.6-.5-2.1-.5-3.3c0-1.1.2-2.2.6-3.2s.9-1.8 1.6-2.6c.7-.7 1.5-1.3 2.5-1.7s2-.6 3.2-.6c1.3 0 2.4.3 3.4.8s1.8 1.2 2.4 2 1.1 1.8 1.4 2.9.4 2.2.3 3.4h-11.1c.1 1.5.4 2.5 1.1 3.1zm4.7-8.1c-.5-.6-1.3-.8-2.3-.8-.7 0-1.2.1-1.7.3-.4.2-.8.5-1.1.8s-.5.7-.6 1.1-.2.7-.2 1h6.9c-.1-1-.5-1.8-1-2.4z"/><path d="m509.9 170.5v2.8h.1c.2-.5.5-.9.8-1.3s.7-.8 1.2-1c.4-.3.9-.5 1.4-.7s1-.2 1.5-.2c.3 0 .6 0 .9.1v3.9c-.2 0-.4-.1-.7-.1s-.5 0-.8 0c-.8 0-1.4.1-2 .4s-1 .6-1.3 1.1c-.3.4-.6 1-.7 1.6s-.2 1.2-.2 1.9v6.9h-4.2v-15.3h4z"/><path d="m525.6 170.5v2.8h-3.1v7.6c0 .7.1 1.2.4 1.4.2.2.7.4 1.4.4h.7c.2 0 .4 0 .6-.1v3.3c-.4.1-.8.1-1.2.1s-.9 0-1.3 0c-.7 0-1.3 0-1.9-.1s-1.1-.3-1.5-.5c-.4-.3-.8-.6-1.1-1.1s-.4-1.1-.4-1.9v-9.1h-2.6v-2.8h2.6v-4.6h4.2v4.6z"/><path d="m527.4 168.1v-3.5h4.2v3.5zm4.2 2.4v15.3h-4.2v-15.3z"/><path d="m533 173.3v-2.8h2.5v-1.2c0-1.4.4-2.5 1.3-3.4.8-.9 2.1-1.3 3.9-1.3h1.1c.4 0 .7.1 1.1.1v3.1c-.5-.1-1-.1-1.5-.1-.6 0-1 .1-1.2.4s-.4.7-.4 1.3v.9h2.9v2.8h-2.9v12.5h-4.2v-12.5h-2.6z"/><path d="m544.4 168.1v-3.5h4.2v3.5zm4.2 2.4v15.3h-4.2v-15.3z"/><path d="m556.1 182.1c.6.6 1.5.9 2.7.9.8 0 1.6-.2 2.2-.6s1-.9 1.1-1.4h3.7c-.6 1.8-1.5 3.2-2.7 3.9-1.2.8-2.7 1.2-4.5 1.2-1.2 0-2.3-.2-3.3-.6s-1.8-.9-2.5-1.6-1.2-1.6-1.6-2.6-.5-2.1-.5-3.3c0-1.1.2-2.2.6-3.2s.9-1.8 1.6-2.6 1.5-1.3 2.5-1.7 2-.6 3.2-.6c1.3 0 2.4.3 3.4.8s1.8 1.2 2.4 2 1.1 1.8 1.4 2.9.4 2.2.3 3.4h-11.1c.1 1.5.5 2.5 1.1 3.1zm4.8-8.1c-.5-.6-1.3-.8-2.3-.8-.7 0-1.2.1-1.7.3-.4.2-.8.5-1.1.8s-.5.7-.6 1.1-.2.7-.2 1h6.9c-.2-1-.5-1.8-1-2.4z"/><path d="m579.2 183.8c-.5.8-1.1 1.4-1.9 1.8s-1.7.5-2.7.5c-1.1 0-2.2-.2-3-.7-.9-.4-1.6-1-2.2-1.8s-1-1.6-1.3-2.6-.4-2-.4-3.1c0-1 .1-2 .4-3s.7-1.8 1.3-2.5 1.3-1.3 2.1-1.8c.8-.4 1.8-.7 3-.7.9 0 1.8.2 2.6.6s1.5 1 1.9 1.7h.1v-7.7h4.2v21.2h-4zm-.2-7.5c-.1-.6-.3-1.1-.6-1.5s-.7-.8-1.1-1.1c-.5-.3-1-.4-1.7-.4s-1.3.1-1.7.4c-.5.3-.9.6-1.1 1.1s-.5 1-.6 1.6-.2 1.2-.2 1.8.1 1.2.2 1.8.4 1.1.7 1.6.7.8 1.2 1.1 1 .4 1.7.4 1.3-.1 1.7-.4c.5-.3.8-.6 1.1-1.1s.5-1 .6-1.6.2-1.2.2-1.8c-.2-.8-.2-1.4-.4-1.9z"/></g></g></svg>